# xmcd CD database file
#
# Track frame offsets:
#	150
#	25932
#	51089
#	75784
#	91684
#	110699
#	131217
#	151621
#	174619
#	196946
#	211160
#	242179
#	272330
#
# Disc length: 4028 seconds
#
# Revision: 0
# Processed by: cddbd v1.5.2PL0 Copyright (c) Steve Scherf et al.
# Submitted via: CDex 1.82
#
DISCID=9c0fba0d
DTITLE=Jonathan, Jo - Jo Jonathan Plays Classics
DYEAR=1900
DGENRE=Blues
TTITLE0=Roadhouse Blues
TTITLE1=Jumping Jack Flash
TTITLE2=Get Back
TTITLE3=Summertime Blues
TTITLE4=Tobacco Road
TTITLE5=Eleanor Rigby
TTITLE6=Come Together
TTITLE7=Hey Jude
TTITLE8=White Room
TTITLE9=Tush
TTITLE10=Stormy Monday
TTITLE11=Ruby Tuesday
TTITLE12=I Shall Be Released
EXTD=
EXTT0=
EXTT1=
EXTT2=
EXTT3=
EXTT4=
EXTT5=
EXTT6=
EXTT7=
EXTT8=
EXTT9=
EXTT10=
EXTT11=
EXTT12=
PLAYORDER=
